<svg preserveAspectRatio="none" width="100%" height="100%" overflow="visible" style="display: block;" viewBox="0 0 25.0565 25" fill="none" xmlns="http://www.w3.org/2000/svg">
<g id="Group">
<path id="Vector" d="M2.35826 18.0687C1.28576 13.7788 0.749508 11.635 1.87576 10.1925C3.00201 8.75 5.21326 8.75 9.63451 8.75H15.422C19.8445 8.75 22.0545 8.75 23.1808 10.1925C24.307 11.635 23.7708 13.78 22.6983 18.0687C22.0158 20.7975 21.6758 22.1612 20.6583 22.9562C19.6408 23.75 18.2345 23.75 15.422 23.75H9.63451C6.82201 23.75 5.41576 23.75 4.39826 22.9562C3.38076 22.1612 3.03951 20.7975 2.35826 18.0687Z" stroke="var(--stroke-0, #BB0B0B)" stroke-width="2.5"/>
<path id="Vector_2" opacity="0.5" d="M21.9033 9.375L21.0158 6.11875C20.6733 4.8625 20.502 4.235 20.1508 3.76125C19.8005 3.29058 19.3249 2.928 18.7783 2.715C18.2283 2.5 17.5783 2.5 16.2783 2.5M3.15326 9.375L4.04076 6.11875C4.38326 4.8625 4.55451 4.235 4.90576 3.76125C5.25598 3.29058 5.73162 2.928 6.27826 2.715C6.82826 2.5 7.47826 2.5 8.77826 2.5" stroke="var(--stroke-0, #BB0B0B)" stroke-width="2.5"/>
<path id="Vector_3" d="M8.77826 2.5C8.77826 2.16848 8.90996 1.85054 9.14438 1.61612C9.3788 1.3817 9.69674 1.25 10.0283 1.25H15.0283C15.3598 1.25 15.6777 1.3817 15.9121 1.61612C16.1466 1.85054 16.2783 2.16848 16.2783 2.5C16.2783 2.83152 16.1466 3.14946 15.9121 3.38388C15.6777 3.6183 15.3598 3.75 15.0283 3.75H10.0283C9.69674 3.75 9.3788 3.6183 9.14438 3.38388C8.90996 3.14946 8.77826 2.83152 8.77826 2.5Z" stroke="var(--stroke-0, #BB0B0B)" stroke-width="2.5"/>
</g>
</svg>
