<svg preserveAspectRatio="none" width="100%" height="100%" overflow="visible" style="display: block;" viewBox="0 0 39.6667 28.8333" fill="none" xmlns="http://www.w3.org/2000/svg">
<path id="Vector" d="M37.4 5.53333C37.1918 4.7538 36.7829 4.04245 36.2142 3.47016C35.6454 2.89788 34.9366 2.48465 34.1583 2.27167C31.3 1.5 19.8333 1.5 19.8333 1.5C19.8333 1.5 8.36667 1.5 5.50833 2.27167C4.7301 2.48465 4.02127 2.89788 3.45249 3.47016C2.88372 4.04245 2.47486 4.7538 2.26667 5.53333C1.5 8.41333 1.5 14.4167 1.5 14.4167C1.5 14.4167 1.5 20.42 2.26667 23.3C2.47461 24.0798 2.88335 24.7915 3.45214 25.3641C4.02094 25.9367 4.7299 26.3502 5.50833 26.5633C8.36833 27.3333 19.8333 27.3333 19.8333 27.3333C19.8333 27.3333 31.3 27.3333 34.1583 26.5633C34.9368 26.3502 35.6457 25.9367 36.2145 25.3641C36.7833 24.7915 37.1921 24.0798 37.4 23.3C38.1667 20.4233 38.1667 14.4167 38.1667 14.4167C38.1667 14.4167 38.1667 8.41333 37.4 5.53333ZM16.0833 19.8683V8.96667L25.6667 14.4183L16.0833 19.8683Z" stroke="var(--stroke-0, #F6F3F2)" stroke-width="3" stroke-miterlimit="10" stroke-linejoin="round"/>
</svg>
